g plane01
v 0.03224235 -5.788596E-05 -0.006536686
v 0.09111696 -5.780966E-05 -0.01443148
v 0.09225269 -5.780966E-05 -1.66893E-08
v 0.03224237 -5.788596E-05 -2.384186E-09
v 0.03224237 -5.788596E-05 -0.01202569
v 0.08773756 -5.780966E-05 -0.02850763
v 0.03224237 -5.788596E-05 -0.01811032
v 0.08219782 -5.780966E-05 -0.04188184
v 0.03224236 -5.788596E-05 -0.01995036
v 0.03165654 -5.786688E-05 -0.02373568
v 0.03125436 -5.786688E-05 -0.02454347
v 0.07463404 -5.780966E-05 -0.05422477
v 0.02995642 -5.786688E-05 -0.02715043
v 0.06766779 -5.780966E-05 -0.06238122
v 0.06651907 -5.780966E-05 -0.06372619
v 0.02893867 -5.786688E-05 -0.02819201
v 0.03224235 -5.788596E-05 0.006536682
v 0.09111696 -5.780966E-05 0.01443148
v 0.03224237 -5.788596E-05 0.01202569
v 0.08773756 -5.780966E-05 0.02850763
v 0.03224237 -5.788596E-05 0.01811031
v 0.08219782 -5.780966E-05 0.04188186
v 0.03224233 -5.895407E-05 0.02002865
v 0.03165653 -5.788596E-05 0.0237745
v 0.0312739 -5.788596E-05 0.02454308
v 0.07463404 -5.780966E-05 0.05422477
v 0.02995641 -5.788596E-05 0.02718926
v 0.06766779 -5.780966E-05 0.06238122
v 0.06651907 -5.780966E-05 0.06372619
v 0.02879663 -5.788596E-05 0.02837618
vt 0.671144 0.5387374
vt 0.917084 0.5700917
vt 0.9222827 0.5040323
vt 0.671144 0.5040321
vt 0.671144 0.5678803
vt 0.9016149 0.6345246
vt 0.671144 0.6001853
vt 0.876257 0.6957445
vt 0.6711439 0.6103703
vt 0.6679883 0.6302582
vt 0.6659273 0.6343389
vt 0.8416342 0.7522437
vt 0.6600305 0.6483882
vt 0.8097464 0.7895796
vt 0.8044882 0.7957361
vt 0.6538728 0.6546899
vt 0.671144 0.4693269
vt 0.917084 0.4379726
vt 0.671144 0.4401841
vt 0.9016149 0.3735397
vt 0.671144 0.407879
vt 0.876257 0.3123197
vt 0.6711439 0.3976939
vt 0.6679883 0.3778061
vt 0.6659273 0.3737255
vt 0.8416342 0.2558205
vt 0.6600305 0.3596761
vt 0.8097464 0.2184847
vt 0.8044882 0.2123281
vt 0.6538728 0.3533745
vn -1.282358E-06 1 -1.368857E-06
vn -1.282629E-06 1 -1.285214E-06
vn -1.278892E-06 1 -2.439685E-06
vn -1.278892E-06 1 -2.439685E-06
vn -1.294203E-06 1 0
vn -1.295732E-06 1 0
vn -1.089992E-06 1 3.420963E-07
vn -1.009377E-06 1 4.702614E-07
vn -6.927526E-07 1 9.736443E-07
vn -6.927526E-07 1 9.736444E-07
vn -7.560274E-07 1 6.338434E-07
vn -7.618415E-07 1 6.026205E-07
vn -8.64989E-07 1 3.374202E-07
vn -8.632788E-07 1 4.010572E-07
vn -8.20183E-07 1 2.004735E-06
vn -8.201831E-07 1 2.004735E-06
vn -1.282359E-06 1 1.292213E-06
vn -1.282629E-06 1 1.270784E-06
vn -1.294203E-06 1 8.199453E-07
vn -1.295732E-06 1 7.948708E-07
vn -3.233165E-06 1 -5.199755E-07
vn -3.95568E-06 1 -9.547223E-07
vn -6.794672E-06 1 -2.662978E-06
vn -6.794672E-06 1 -2.662978E-06
vn -4.826426E-06 1 -1.708115E-06
vn -4.645012E-06 1 -1.620105E-06
vn -1.153238E-06 1 5.556174E-08
vn -1.1508E-06 1 5.335508E-08
vn -1.091855E-06 1 0
vn -1.091855E-06 1 0
g plane01_0
f 3/3/3 2/2/2 1/1/1
f 4/4/4 3/3/3 1/1/1
f 1/1/1 2/2/2 5/5/5
f 2/2/2 6/6/6 5/5/5
f 5/5/5 6/6/6 7/7/7
f 6/6/6 8/8/8 7/7/7
f 9/9/9 7/7/7 8/8/8
f 10/10/10 9/9/9 8/8/8
f 11/11/11 10/10/10 8/8/8
f 8/8/8 12/12/12 11/11/11
f 11/11/11 12/12/12 13/13/13
f 12/12/12 14/14/14 13/13/13
f 14/14/14 15/15/15 13/13/13
f 15/15/15 16/16/16 13/13/13
f 3/3/3 4/4/4 17/17/17
f 18/18/18 3/3/3 17/17/17
f 18/18/18 17/17/17 19/19/19
f 20/20/20 18/18/18 19/19/19
f 20/20/20 19/19/19 21/21/21
f 22/22/22 20/20/20 21/21/21
f 22/22/22 21/21/21 23/23/23
f 23/23/23 24/24/24 22/22/22
f 24/24/24 25/25/25 22/22/22
f 25/25/25 26/26/26 22/22/22
f 26/26/26 25/25/25 27/27/27
f 28/28/28 26/26/26 27/27/27
f 29/29/29 28/28/28 27/27/27
f 30/30/30 29/29/29 27/27/27
