g shaizi01
v 0.004884529 0.004884529 -0.006105509
v -0.004884529 0.004884529 -0.006105509
v 0.004884529 -0.004884529 -0.006105509
v -0.004884529 -0.004884529 -0.006105509
v -0.005747892 0.004884529 -0.005747891
v -0.005747892 -0.004884529 -0.005747891
v -0.004884529 -0.005747892 -0.005747891
v 0.004884529 -0.005747892 -0.005747891
v 0.005747892 -0.004884529 -0.005747891
v 0.005747892 0.004884529 -0.005747891
v 0.004884529 0.005747892 -0.005747891
v -0.004884529 0.005747892 -0.005747891
v -0.00557931 -0.00557931 -0.00557931
v 0.00557931 -0.00557931 -0.00557931
v -0.00557931 0.00557931 -0.00557931
v 0.00557931 0.00557931 -0.00557931
v 0.004884529 -0.006105509 0.004884529
v 0.004884529 -0.006105509 -0.004884529
v -0.004884529 -0.006105509 0.004884529
v -0.004884529 -0.006105509 -0.004884529
v 0.004884529 -0.005747892 -0.005747891
v -0.004884529 -0.005747892 -0.005747891
v -0.005747892 -0.005747892 -0.004884529
v -0.005747892 -0.005747892 0.004884529
v 0.005747892 -0.005747892 0.004884529
v 0.005747892 -0.005747892 -0.004884529
v -0.004884529 -0.005747892 0.005747891
v 0.004884529 -0.005747892 0.005747891
v -0.00557931 -0.00557931 -0.00557931
v 0.00557931 -0.00557931 -0.00557931
v -0.00557931 -0.00557931 0.00557931
v 0.00557931 -0.00557931 0.00557931
v -0.006105509 0.004884529 0.004884529
v -0.006105509 -0.004884529 0.004884529
v -0.006105509 0.004884529 -0.004884529
v -0.006105509 -0.004884529 -0.004884529
v -0.005747892 -0.004884529 -0.005747891
v -0.005747892 0.004884529 -0.005747891
v -0.005747892 -0.005747892 0.004884529
v -0.005747892 -0.005747892 -0.004884529
v -0.005747892 0.004884529 0.005747891
v -0.005747892 -0.004884529 0.005747891
v -0.005747892 0.005747892 -0.004884529
v -0.005747892 0.005747892 0.004884529
v -0.00557931 -0.00557931 -0.00557931
v -0.00557931 -0.00557931 0.00557931
v -0.00557931 0.00557931 0.00557931
v -0.00557931 0.00557931 -0.00557931
v 0.006105509 0.004884529 0.004884529
v 0.006105509 0.004884529 -0.004884529
v 0.006105509 -0.004884529 0.004884529
v 0.006105509 -0.004884529 -0.004884529
v 0.005747892 0.004884529 -0.005747891
v 0.005747892 -0.004884529 -0.005747891
v 0.005747892 -0.005747892 -0.004884529
v 0.005747892 -0.005747892 0.004884529
v 0.005747892 -0.004884529 0.005747891
v 0.005747892 0.004884529 0.005747891
v 0.005747892 0.005747892 0.004884529
v 0.005747892 0.005747892 -0.004884529
v 0.00557931 -0.00557931 -0.00557931
v 0.00557931 -0.00557931 0.00557931
v 0.00557931 0.00557931 0.00557931
v 0.00557931 0.00557931 -0.00557931
v 0.004884529 0.004884529 0.006105509
v 0.004884529 -0.004884529 0.006105509
v -0.004884529 0.004884529 0.006105509
v -0.004884529 -0.004884529 0.006105509
v -0.005747892 -0.004884529 0.005747891
v -0.005747892 0.004884529 0.005747891
v 0.004884529 -0.005747892 0.005747891
v -0.004884529 -0.005747892 0.005747891
v 0.005747892 0.004884529 0.005747891
v 0.005747892 -0.004884529 0.005747891
v -0.004884529 0.005747892 0.005747891
v 0.004884529 0.005747892 0.005747891
v -0.00557931 -0.00557931 0.00557931
v 0.00557931 -0.00557931 0.00557931
v -0.00557931 0.00557931 0.00557931
v 0.00557931 0.00557931 0.00557931
v 0.004884529 0.006105509 -0.004884529
v 0.004884529 0.006105509 0.004884529
v -0.004884529 0.006105509 -0.004884529
v -0.004884529 0.006105509 0.004884529
v -0.005747892 0.005747892 0.004884529
v -0.005747892 0.005747892 -0.004884529
v 0.004884529 0.005747892 0.005747891
v -0.004884529 0.005747892 0.005747891
v 0.005747892 0.005747892 -0.004884529
v 0.005747892 0.005747892 0.004884529
v -0.004884529 0.005747892 -0.005747891
v 0.004884529 0.005747892 -0.005747891
v -0.00557931 0.00557931 0.00557931
v 0.00557931 0.00557931 0.00557931
v -0.00557931 0.00557931 -0.00557931
v 0.00557931 0.00557931 -0.00557931
vt 0.323094 0.9732631
vt 0.02806583 0.9732631
vt 0.323094 0.6932728
vt 0.02806583 0.6932728
vt 0.001992032 0.9732631
vt 0.001992032 0.6932728
vt 0.02806583 0.668528
vt 0.323094 0.668528
vt 0.3491678 0.6932728
vt 0.3491678 0.9732631
vt 0.323094 0.998008
vt 0.02806583 0.998008
vt 0.00708326 0.6733598
vt 0.3440765 0.6733598
vt 0.00708326 0.9931762
vt 0.3440765 0.9931762
vt 0.6779982 0.6932728
vt 0.6779982 0.9732631
vt 0.38297 0.6932728
vt 0.38297 0.9732631
vt 0.6779982 0.998008
vt 0.38297 0.998008
vt 0.3568963 0.9732631
vt 0.3568963 0.6932728
vt 0.704072 0.6932728
vt 0.704072 0.9732631
vt 0.38297 0.668528
vt 0.6779982 0.668528
vt 0.3619875 0.9931762
vt 0.6989807 0.9931762
vt 0.3619875 0.6733598
vt 0.6989807 0.6733598
vt 0.6769061 0.3600048
vt 0.9719342 0.3600048
vt 0.6769061 0.6399952
vt 0.9719342 0.6399952
vt 0.9719342 0.66474
vt 0.6769061 0.66474
vt 0.998008 0.3600048
vt 0.998008 0.6399952
vt 0.6769061 0.33526
vt 0.9719342 0.33526
vt 0.6508323 0.6399952
vt 0.6508323 0.3600048
vt 0.9929168 0.6599083
vt 0.9929168 0.3400918
vt 0.6559235 0.3400918
vt 0.6559235 0.6599083
vt 0.6186232 0.3600048
vt 0.6186232 0.6399952
vt 0.323595 0.3600048
vt 0.323595 0.6399952
vt 0.6186232 0.66474
vt 0.323595 0.66474
vt 0.2975212 0.6399952
vt 0.2975212 0.3600048
vt 0.323595 0.33526
vt 0.6186232 0.33526
vt 0.644697 0.3600048
vt 0.644697 0.6399952
vt 0.3026125 0.6599083
vt 0.3026125 0.3400918
vt 0.6396058 0.3400918
vt 0.6396058 0.6599083
vt 0.323094 0.02673686
vt 0.323094 0.3067272
vt 0.02806583 0.02673686
vt 0.02806583 0.3067272
vt 0.001992032 0.3067272
vt 0.001992032 0.02673686
vt 0.323094 0.331472
vt 0.02806583 0.331472
vt 0.3491678 0.02673686
vt 0.3491678 0.3067272
vt 0.02806583 0.001992106
vt 0.323094 0.001992106
vt 0.00708326 0.3266403
vt 0.3440765 0.3266403
vt 0.00708326 0.006823778
vt 0.3440765 0.006823778
vt 0.6779982 0.0267368
vt 0.6779982 0.3067272
vt 0.38297 0.0267368
vt 0.38297 0.3067272
vt 0.3568963 0.3067272
vt 0.3568963 0.0267368
vt 0.6779982 0.331472
vt 0.38297 0.331472
vt 0.704072 0.0267368
vt 0.704072 0.3067272
vt 0.38297 0.001992047
vt 0.6779982 0.001992047
vt 0.3619875 0.3266402
vt 0.6989807 0.3266402
vt 0.3619875 0.006823778
vt 0.6989807 0.006823778
vn 0.1854067 0.1854067 -0.9650123
vn -0.1854067 0.1854067 -0.9650123
vn 0.1854067 -0.1854067 -0.9650123
vn -0.1854067 -0.1854067 -0.9650123
vn -0.6950337 0.1840007 -0.6950337
vn -0.6950337 -0.1840007 -0.6950337
vn -0.1840007 -0.6950337 -0.6950337
vn 0.1840007 -0.6950337 -0.6950337
vn 0.6950337 -0.1840007 -0.6950337
vn 0.6950337 0.1840007 -0.6950337
vn 0.1840007 0.6950337 -0.6950337
vn -0.1840007 0.6950337 -0.6950337
vn -0.5773503 -0.5773503 -0.5773503
vn 0.5773503 -0.5773503 -0.5773503
vn -0.5773503 0.5773503 -0.5773503
vn 0.5773503 0.5773503 -0.5773503
vn 0.1854067 -0.9650123 0.1854067
vn 0.1854067 -0.9650123 -0.1854067
vn -0.1854067 -0.9650123 0.1854067
vn -0.1854067 -0.9650123 -0.1854067
vn 0.1840007 -0.6950337 -0.6950337
vn -0.1840007 -0.6950337 -0.6950337
vn -0.6950337 -0.6950337 -0.1840007
vn -0.6950337 -0.6950337 0.1840007
vn 0.6950337 -0.6950337 0.1840007
vn 0.6950337 -0.6950337 -0.1840007
vn -0.1840007 -0.6950337 0.6950337
vn 0.1840007 -0.6950337 0.6950337
vn -0.5773503 -0.5773503 -0.5773503
vn 0.5773503 -0.5773503 -0.5773503
vn -0.5773503 -0.5773503 0.5773503
vn 0.5773503 -0.5773503 0.5773503
vn -0.9650123 0.1854067 0.1854067
vn -0.9650123 -0.1854067 0.1854067
vn -0.9650123 0.1854067 -0.1854067
vn -0.9650123 -0.1854067 -0.1854067
vn -0.6950337 -0.1840007 -0.6950337
vn -0.6950337 0.1840007 -0.6950337
vn -0.6950337 -0.6950337 0.1840007
vn -0.6950337 -0.6950337 -0.1840007
vn -0.6950337 0.1840007 0.6950337
vn -0.6950337 -0.1840007 0.6950337
vn -0.6950337 0.6950337 -0.1840007
vn -0.6950337 0.6950337 0.1840007
vn -0.5773503 -0.5773503 -0.5773503
vn -0.5773503 -0.5773503 0.5773503
vn -0.5773503 0.5773503 0.5773503
vn -0.5773503 0.5773503 -0.5773503
vn 0.9650123 0.1854067 0.1854067
vn 0.9650123 0.1854067 -0.1854067
vn 0.9650123 -0.1854067 0.1854067
vn 0.9650123 -0.1854067 -0.1854067
vn 0.6950337 0.1840007 -0.6950337
vn 0.6950337 -0.1840007 -0.6950337
vn 0.6950337 -0.6950337 -0.1840007
vn 0.6950337 -0.6950337 0.1840007
vn 0.6950337 -0.1840007 0.6950337
vn 0.6950337 0.1840007 0.6950337
vn 0.6950337 0.6950337 0.1840007
vn 0.6950337 0.6950337 -0.1840007
vn 0.5773503 -0.5773503 -0.5773503
vn 0.5773503 -0.5773503 0.5773503
vn 0.5773503 0.5773503 0.5773503
vn 0.5773503 0.5773503 -0.5773503
vn 0.1854067 0.1854067 0.9650123
vn 0.1854067 -0.1854067 0.9650123
vn -0.1854067 0.1854067 0.9650123
vn -0.1854067 -0.1854067 0.9650123
vn -0.6950337 -0.1840007 0.6950337
vn -0.6950337 0.1840007 0.6950337
vn 0.1840007 -0.6950337 0.6950337
vn -0.1840007 -0.6950337 0.6950337
vn 0.6950337 0.1840007 0.6950337
vn 0.6950337 -0.1840007 0.6950337
vn -0.1840007 0.6950337 0.6950337
vn 0.1840007 0.6950337 0.6950337
vn -0.5773503 -0.5773503 0.5773503
vn 0.5773503 -0.5773503 0.5773503
vn -0.5773503 0.5773503 0.5773503
vn 0.5773503 0.5773503 0.5773503
vn 0.1854067 0.9650123 -0.1854067
vn 0.1854067 0.9650123 0.1854067
vn -0.1854067 0.9650123 -0.1854067
vn -0.1854067 0.9650123 0.1854067
vn -0.6950337 0.6950337 0.1840007
vn -0.6950337 0.6950337 -0.1840007
vn 0.1840007 0.6950337 0.6950337
vn -0.1840007 0.6950337 0.6950337
vn 0.6950337 0.6950337 -0.1840007
vn 0.6950337 0.6950337 0.1840007
vn -0.1840007 0.6950337 -0.6950337
vn 0.1840007 0.6950337 -0.6950337
vn -0.5773503 0.5773503 0.5773503
vn 0.5773503 0.5773503 0.5773503
vn -0.5773503 0.5773503 -0.5773503
vn 0.5773503 0.5773503 -0.5773503
g shaizi01_0
f 3/3/3 2/2/2 1/1/1
f 4/4/4 2/2/2 3/3/3
f 2/2/2 4/4/4 5/5/5
f 5/5/5 4/4/4 6/6/6
f 3/3/3 7/7/7 4/4/4
f 7/7/7 6/6/6 4/4/4
f 8/8/8 7/7/7 3/3/3
f 1/1/1 9/9/9 3/3/3
f 9/9/9 8/8/8 3/3/3
f 10/10/10 9/9/9 1/1/1
f 1/1/1 2/2/2 11/11/11
f 11/11/11 10/10/10 1/1/1
f 11/11/11 2/2/2 12/12/12
f 5/5/5 12/12/12 2/2/2
f 13/13/13 6/6/6 7/7/7
f 14/14/14 8/8/8 9/9/9
f 15/15/15 12/12/12 5/5/5
f 16/16/16 10/10/10 11/11/11
f 19/19/19 18/18/18 17/17/17
f 20/20/20 18/18/18 19/19/19
f 18/18/18 20/20/20 21/21/21
f 21/21/21 20/20/20 22/22/22
f 19/19/19 23/23/23 20/20/20
f 23/23/23 22/22/22 20/20/20
f 24/24/24 23/23/23 19/19/19
f 17/17/17 18/18/18 25/25/25
f 25/25/25 18/18/18 26/26/26
f 21/21/21 26/26/26 18/18/18
f 17/17/17 27/27/27 19/19/19
f 27/27/27 24/24/24 19/19/19
f 28/28/28 27/27/27 17/17/17
f 25/25/25 28/28/28 17/17/17
f 29/29/29 22/22/22 23/23/23
f 30/30/30 26/26/26 21/21/21
f 31/31/31 24/24/24 27/27/27
f 32/32/32 28/28/28 25/25/25
f 35/35/35 34/34/34 33/33/33
f 36/36/36 34/34/34 35/35/35
f 35/35/35 37/37/37 36/36/36
f 38/38/38 37/37/37 35/35/35
f 34/34/34 36/36/36 39/39/39
f 39/39/39 36/36/36 40/40/40
f 37/37/37 40/40/40 36/36/36
f 33/33/33 34/34/34 41/41/41
f 41/41/41 34/34/34 42/42/42
f 39/39/39 42/42/42 34/34/34
f 35/35/35 33/33/33 43/43/43
f 43/43/43 38/38/38 35/35/35
f 43/43/43 33/33/33 44/44/44
f 41/41/41 44/44/44 33/33/33
f 45/45/45 40/40/40 37/37/37
f 46/46/46 42/42/42 39/39/39
f 47/47/47 44/44/44 41/41/41
f 48/48/48 38/38/38 43/43/43
f 51/51/51 50/50/50 49/49/49
f 52/52/52 50/50/50 51/51/51
f 50/50/50 52/52/52 53/53/53
f 53/53/53 52/52/52 54/54/54
f 51/51/51 55/55/55 52/52/52
f 55/55/55 54/54/54 52/52/52
f 56/56/56 55/55/55 51/51/51
f 49/49/49 57/57/57 51/51/51
f 57/57/57 56/56/56 51/51/51
f 58/58/58 57/57/57 49/49/49
f 50/50/50 59/59/59 49/49/49
f 59/59/59 58/58/58 49/49/49
f 60/60/60 59/59/59 50/50/50
f 53/53/53 60/60/60 50/50/50
f 61/61/61 54/54/54 55/55/55
f 62/62/62 56/56/56 57/57/57
f 63/63/63 58/58/58 59/59/59
f 64/64/64 60/60/60 53/53/53
f 67/67/67 66/66/66 65/65/65
f 68/68/68 66/66/66 67/67/67
f 67/67/67 69/69/69 68/68/68
f 70/70/70 69/69/69 67/67/67
f 66/66/66 68/68/68 71/71/71
f 71/71/71 68/68/68 72/72/72
f 69/69/69 72/72/72 68/68/68
f 65/65/65 66/66/66 73/73/73
f 73/73/73 66/66/66 74/74/74
f 71/71/71 74/74/74 66/66/66
f 65/65/65 75/75/75 67/67/67
f 75/75/75 70/70/70 67/67/67
f 76/76/76 75/75/75 65/65/65
f 73/73/73 76/76/76 65/65/65
f 77/77/77 72/72/72 69/69/69
f 78/78/78 74/74/74 71/71/71
f 79/79/79 70/70/70 75/75/75
f 80/80/80 76/76/76 73/73/73
f 83/83/83 82/82/82 81/81/81
f 84/84/84 82/82/82 83/83/83
f 83/83/83 85/85/85 84/84/84
f 86/86/86 85/85/85 83/83/83
f 82/82/82 84/84/84 87/87/87
f 87/87/87 84/84/84 88/88/88
f 85/85/85 88/88/88 84/84/84
f 81/81/81 82/82/82 89/89/89
f 89/89/89 82/82/82 90/90/90
f 87/87/87 90/90/90 82/82/82
f 81/81/81 91/91/91 83/83/83
f 91/91/91 86/86/86 83/83/83
f 92/92/92 91/91/91 81/81/81
f 89/89/89 92/92/92 81/81/81
f 93/93/93 88/88/88 85/85/85
f 94/94/94 90/90/90 87/87/87
f 95/95/95 86/86/86 91/91/91
f 96/96/96 92/92/92 89/89/89
