g glass
v 0.01809 0 -0.03014799
v 0 0 0
v -0.01809 0 -0.03014799
v -0.02181613 0 -0.02955783
v -0.02517751 0 -0.02784512
v -0.02784512 0 -0.02517751
v -0.02955783 0 -0.02181612
v -0.03014799 0 -0.01809
v -0.03014799 0 0.01809001
v -0.02955783 0 0.02181613
v -0.02784512 0 0.02517752
v -0.02517751 0 0.02784512
v -0.02181613 0 0.02955783
v -0.01809 0 0.030148
v 0.01809 0 0.030148
v 0.02181613 0 0.02955783
v 0.02517751 0 0.02784512
v 0.02784512 0 0.02517752
v 0.02955783 0 0.02181613
v 0.03014799 0 0.01809001
v 0.03014799 0 -0.01809
v 0.02955783 0 -0.02181612
v 0.02784512 0 -0.02517751
v 0.02517751 0 -0.02784512
v 0.02181613 0 -0.02955783
vt 0.9774635 0.7772086
vt 0.5100099 0.4967177
vt 0.9774635 0.2162267
vt 0.9683129 0.158452
vt 0.941757 0.1063325
vt 0.900395 0.06497061
vt 0.8482757 0.0384146
vt 0.7905008 0.029264
vt 0.2295189 0.02926379
vt 0.1717443 0.03841436
vt 0.1196249 0.06497061
vt 0.07826293 0.1063326
vt 0.05170679 0.1584519
vt 0.04255611 0.2162267
vt 0.04255611 0.7772086
vt 0.05170685 0.8349831
vt 0.07826281 0.8871026
vt 0.1196249 0.9284647
vt 0.1717442 0.9550209
vt 0.2295189 0.9641714
vt 0.7905008 0.9641713
vt 0.8482755 0.9550209
vt 0.9003949 0.9284647
vt 0.9417568 0.8871024
vt 0.9683129 0.8349836
vn 0 1 6.994605E-07
vn 0 1 6.994605E-07
vn 0 1 6.994605E-07
vn 0 1 0
vn 0 1 -5.580306E-06
vn 0 1 0
vn 0 1 0
vn 0 1 0
vn 0 1 0
vn 0 1 0
vn 0 1 0
vn 0 1 0
vn 0 1 1.116062E-05
vn 0 1 0
vn 0 1 -6.994601E-07
vn 0 1 0
vn 0 1 5.580317E-06
vn 0 1 0
vn 0 1 -1.116061E-05
vn 0 1 0
vn 0 1 0
vn 0 1 0
vn 0 1 1.116062E-05
vn 0 1 0
vn 0 1 0
g glass_0
f 3/3/3 2/2/2 1/1/1
f 4/4/4 2/2/2 3/3/3
f 5/5/5 2/2/2 4/4/4
f 6/6/6 2/2/2 5/5/5
f 7/7/7 2/2/2 6/6/6
f 8/8/8 2/2/2 7/7/7
f 9/9/9 2/2/2 8/8/8
f 10/10/10 2/2/2 9/9/9
f 11/11/11 2/2/2 10/10/10
f 12/12/12 2/2/2 11/11/11
f 13/13/13 2/2/2 12/12/12
f 14/14/14 2/2/2 13/13/13
f 15/15/15 2/2/2 14/14/14
f 16/16/16 2/2/2 15/15/15
f 17/17/17 2/2/2 16/16/16
f 18/18/18 2/2/2 17/17/17
f 19/19/19 2/2/2 18/18/18
f 20/20/20 2/2/2 19/19/19
f 21/21/21 2/2/2 20/20/20
f 22/22/22 2/2/2 21/21/21
f 23/23/23 2/2/2 22/22/22
f 24/24/24 2/2/2 23/23/23
f 25/25/25 2/2/2 24/24/24
f 1/1/1 2/2/2 25/25/25
