g mesh_diamond2
v -0.005752898 -0.004654265 -0.04510806
v -0.04826427 -0.004476434 -0.001932053
v -0.005598978 -0.1111684 -0.001954622
v -0.005696755 -6.650272E-10 -0.04691505
v -0.05 -1.022301E-08 -0.001906042
v 0.00575291 -0.004654259 -0.04510805
v 0.005599045 -0.1111684 -0.001954622
v 0.0482643 -0.004476391 -0.001932053
v 0.05 1.043041E-08 -0.001906042
v 0.00569676 2.302417E-09 -0.04691505
v 0.0057529 0.004654269 -0.04510806
v 0.04826427 0.004476435 -0.001932053
v 0.005598978 0.01334714 -0.001954627
v -0.005752904 0.004654263 -0.04510806
v -0.005599045 0.01334709 -0.001954627
v -0.0482643 0.004476392 -0.001932053
v -0.005598978 -0.1111684 0.001954642
v -0.04826427 -0.004476435 0.001932053
v -0.005752902 -0.004654267 0.04510806
v -0.05 -1.06349E-08 0.001906042
v -0.00569676 -2.054141E-09 0.04691505
v 0.0482643 -0.004476391 0.001932053
v 0.005599045 -0.1111684 0.001954643
v 0.005752902 -0.004654263 0.04510807
v 0.005696755 2.130008E-10 0.04691506
v 0.05 1.063199E-08 0.001906042
v 0.005598978 0.01334714 0.001954637
v 0.04826427 0.004476435 0.001932053
v 0.005752898 0.004654264 0.04510807
v -0.0482643 0.004476392 0.001932053
v -0.005599046 0.01334709 0.001954637
v -0.005752907 0.004654259 0.04510806
v -0.005752898 -0.004654265 -0.04510806
v 1.744991E-09 -0.004568877 -0.04826439
v 6.175659E-10 8.814439E-10 -0.05
v -0.005696755 -6.650272E-10 -0.04691505
v 1.054315E-08 -0.1204351 -0.001918762
v -0.005598978 -0.1111684 -0.001954622
v 0.005752902 -0.004654263 0.04510807
v -5.411345E-11 -0.004568881 0.0482644
v -6.175659E-10 -9.690384E-10 0.05
v 0.005696755 2.130008E-10 0.04691506
v 1.0749E-08 -0.1204351 0.001918785
v 0.005599045 -0.1111684 0.001954643
v 0.005599045 -0.1111684 -0.001954622
v 1.054315E-08 -0.1204351 -0.001918762
v 1.0749E-08 -0.1204351 0.001918785
v 0.005599045 -0.1111684 0.001954643
v -0.04826427 -0.004476434 -0.001932053
v -0.05 -1.022301E-08 -0.001906042
v -0.05 -1.06349E-08 0.001906042
v -0.04826427 -0.004476435 0.001932053
v -0.005598978 -0.1111684 -0.001954622
v -0.005598978 -0.1111684 0.001954642
v 0.04826427 0.004476435 -0.001932053
v 0.05 1.043041E-08 -0.001906042
v 0.05 1.063199E-08 0.001906042
v 0.04826427 0.004476435 0.001932053
v -0.005599045 0.01334709 -0.001954627
v -1.033729E-08 0.01425012 -0.001918768
v -1.0749E-08 0.01425012 0.001918779
v -0.005599046 0.01334709 0.001954637
v -0.0482643 0.004476392 -0.001932053
v -0.0482643 0.004476392 0.001932053
v 0.0057529 0.004654269 -0.04510806
v 0.005598978 0.01334714 -0.001954627
v -1.033729E-08 0.01425012 -0.001918768
v -9.274638E-10 0.004568882 -0.04826439
v -0.005598978 -0.1111684 0.001954642
v -0.005752902 -0.004654267 0.04510806
v -5.411345E-11 -0.004568881 0.0482644
v 1.0749E-08 -0.1204351 0.001918785
v -6.175659E-10 -9.690384E-10 0.05
v -0.00569676 -2.054141E-09 0.04691505
v 0.005598978 0.01334714 0.001954637
v 0.005752898 0.004654264 0.04510807
v -1.35049E-09 0.004568877 0.0482644
v -1.0749E-08 0.01425012 0.001918779
v 0.0482643 -0.004476391 -0.001932053
v 0.005599045 -0.1111684 -0.001954622
v 0.005599045 -0.1111684 0.001954643
v 0.0482643 -0.004476391 0.001932053
v 0.05 1.063199E-08 0.001906042
v 0.05 1.043041E-08 -0.001906042
v 0.005598978 0.01334714 -0.001954627
v 0.04826427 0.004476435 -0.001932053
v 0.04826427 0.004476435 0.001932053
v 0.005598978 0.01334714 0.001954637
v -1.0749E-08 0.01425012 0.001918779
v -1.033729E-08 0.01425012 -0.001918768
v -0.005696755 -6.650272E-10 -0.04691505
v 6.175659E-10 8.814439E-10 -0.05
v -9.274638E-10 0.004568882 -0.04826439
v -0.005752904 0.004654263 -0.04510806
v 0.005696755 2.130008E-10 0.04691506
v -6.175659E-10 -9.690384E-10 0.05
v -1.35049E-09 0.004568877 0.0482644
v 0.005752898 0.004654264 0.04510807
v -0.05 -1.06349E-08 0.001906042
v -0.05 -1.022301E-08 -0.001906042
v -0.0482643 0.004476392 -0.001932053
v -0.0482643 0.004476392 0.001932053
v -0.00569676 -2.054141E-09 0.04691505
v -0.05 -1.06349E-08 0.001906042
v -0.0482643 0.004476392 0.001932053
v -0.005752907 0.004654259 0.04510806
v 0.00569676 2.302417E-09 -0.04691505
v 0.05 1.043041E-08 -0.001906042
v 0.04826427 0.004476435 -0.001932053
v 0.0057529 0.004654269 -0.04510806
v -0.05 -1.022301E-08 -0.001906042
v -0.005696755 -6.650272E-10 -0.04691505
v -0.005752904 0.004654263 -0.04510806
v -0.0482643 0.004476392 -0.001932053
v 0.05 1.063199E-08 0.001906042
v 0.005696755 2.130008E-10 0.04691506
v 0.005752898 0.004654264 0.04510807
v 0.04826427 0.004476435 0.001932053
v 6.175659E-10 8.814439E-10 -0.05
v 1.744991E-09 -0.004568877 -0.04826439
v 0.00575291 -0.004654259 -0.04510805
v 0.00569676 2.302417E-09 -0.04691505
v 0.005599045 -0.1111684 -0.001954622
v 1.054315E-08 -0.1204351 -0.001918762
v 1.0749E-08 -0.1204351 0.001918785
v 1.054315E-08 -0.1204351 -0.001918762
v -0.005598978 -0.1111684 -0.001954622
v -0.005598978 -0.1111684 0.001954642
v -9.274638E-10 0.004568882 -0.04826439
v -1.033729E-08 0.01425012 -0.001918768
v -0.005599045 0.01334709 -0.001954627
v -0.005752904 0.004654263 -0.04510806
v -1.0749E-08 0.01425012 0.001918779
v -1.35049E-09 0.004568877 0.0482644
v -0.005752907 0.004654259 0.04510806
v -0.005599046 0.01334709 0.001954637
v -9.274638E-10 0.004568882 -0.04826439
v 6.175659E-10 8.814439E-10 -0.05
v 0.00569676 2.302417E-09 -0.04691505
v 0.0057529 0.004654269 -0.04510806
v -1.35049E-09 0.004568877 0.0482644
v -6.175659E-10 -9.690384E-10 0.05
v -0.00569676 -2.054141E-09 0.04691505
v -0.005752907 0.004654259 0.04510806
vt 0.442471 0.04891944
vt 0.01735726 0.4806795
vt 0.4440103 0.4804537
vt 0.4430324 0.03084946
vt 0 0.4809396
vt 0.5575291 0.04891944
vt 0.5559905 0.4804537
vt 0.982643 0.4806795
vt 1 0.4809396
vt 0.5569676 0.03084946
vt 0.442471 0.04891944
vt 0.01735723 0.4806795
vt 0.4440103 0.4804536
vt 0.557529 0.04891944
vt 0.5559905 0.4804536
vt 0.982643 0.4806795
vt 0.4440103 0.5195463
vt 0.01735726 0.5193205
vt 0.442471 0.9510806
vt 0 0.5190604
vt 0.4430324 0.9691504
vt 0.982643 0.5193205
vt 0.5559905 0.5195463
vt 0.557529 0.9510806
vt 0.5569676 0.9691505
vt 1 0.5190604
vt 0.4440103 0.5195462
vt 0.01735723 0.5193205
vt 0.442471 0.9510806
vt 0.982643 0.5193205
vt 0.5559905 0.5195462
vt 0.5575291 0.9510806
vt 0.442471 0.04891944
vt 0.5 0.01735616
vt 0.5 0
vt 0.4430324 0.03084946
vt 0.5000002 0.4808123
vt 0.4440103 0.4804537
vt 0.557529 0.9510806
vt 0.5 0.9826439
vt 0.5 1
vt 0.5569676 0.9691505
vt 0.5000002 0.5191877
vt 0.5559905 0.5195463
vt 0.5559905 0.4804537
vt 0.5000002 0.4808123
vt 0.5000002 0.5191877
vt 0.5559905 0.5195463
vt 0.01735726 0.4806795
vt 0 0.4809396
vt 0 0.5190604
vt 0.01735726 0.5193205
vt 0.4440103 0.4804537
vt 0.4440103 0.5195463
vt 0.01735723 0.4806795
vt 0 0.4809396
vt 0 0.5190604
vt 0.01735723 0.5193205
vt 0.5559905 0.4804536
vt 0.5000001 0.4808122
vt 0.5000001 0.5191876
vt 0.5559905 0.5195462
vt 0.982643 0.4806795
vt 0.982643 0.5193205
vt 0.442471 0.04891944
vt 0.4440103 0.4804536
vt 0.5000001 0.4808122
vt 0.5 0.01735616
vt 0.4440103 0.5195463
vt 0.442471 0.9510806
vt 0.5 0.9826439
vt 0.5000002 0.5191877
vt 0.5 1
vt 0.4430324 0.9691504
vt 0.4440103 0.5195462
vt 0.442471 0.9510806
vt 0.5 0.9826439
vt 0.5000001 0.5191876
vt 0.982643 0.4806795
vt 0.5559905 0.4804537
vt 0.5559905 0.5195463
vt 0.982643 0.5193205
vt 1 0.5190604
vt 1 0.4809396
vt 0.4440103 0.4804536
vt 0.01735723 0.4806795
vt 0.01735723 0.5193205
vt 0.4440103 0.5195462
vt 0.5000001 0.5191876
vt 0.5000001 0.4808122
vt 0.5569676 0.03084946
vt 0.5 0
vt 0.5 0.01735616
vt 0.557529 0.04891944
vt 0.4430324 0.9691505
vt 0.5 1
vt 0.5 0.9826439
vt 0.442471 0.9510806
vt 1 0.5190604
vt 1 0.4809396
vt 0.982643 0.4806795
vt 0.982643 0.5193205
vt 0.5569676 0.9691504
vt 1 0.5190604
vt 0.982643 0.5193205
vt 0.5575291 0.9510806
vt 0.4430324 0.03084946
vt 0 0.4809396
vt 0.01735723 0.4806795
vt 0.442471 0.04891944
vt 1 0.4809396
vt 0.5569676 0.03084946
vt 0.557529 0.04891944
vt 0.982643 0.4806795
vt 0 0.5190604
vt 0.4430324 0.9691505
vt 0.442471 0.9510806
vt 0.01735723 0.5193205
vt 0.5 0
vt 0.5 0.01735616
vt 0.5575291 0.04891944
vt 0.5569676 0.03084946
vt 0.5559905 0.4804537
vt 0.5000002 0.4808123
vt 0.5000002 0.5191877
vt 0.5000002 0.4808123
vt 0.4440103 0.4804537
vt 0.4440103 0.5195463
vt 0.5 0.01735616
vt 0.5000001 0.4808122
vt 0.5559905 0.4804536
vt 0.557529 0.04891944
vt 0.5000001 0.5191876
vt 0.5 0.9826439
vt 0.5575291 0.9510806
vt 0.5559905 0.5195462
vt 0.5 0.01735616
vt 0.5 0
vt 0.4430324 0.03084946
vt 0.442471 0.04891944
vt 0.5 0.9826439
vt 0.5 1
vt 0.5569676 0.9691504
vt 0.5575291 0.9510806
vn -0.6858397 -0.2741194 -0.6741533
vn -0.6858397 -0.2741193 -0.6741531
vn -0.6858397 -0.2741194 -0.6741533
vn -0.6886056 -0.2587952 -0.6773828
vn -0.6886057 -0.2587952 -0.6773827
vn 0.6858397 -0.2741191 -0.6741533
vn 0.6858397 -0.2741191 -0.6741533
vn 0.6858397 -0.2741191 -0.6741533
vn 0.688606 -0.2587934 -0.6773831
vn 0.688606 -0.2587934 -0.6773831
vn 0.199839 0.9606718 -0.1928059
vn 0.199839 0.9606718 -0.1928059
vn 0.199839 0.9606718 -0.1928059
vn -0.199839 0.9606719 -0.1928052
vn -0.199839 0.9606719 -0.1928053
vn -0.199839 0.9606719 -0.1928053
vn -0.6858398 -0.2741192 0.6741531
vn -0.6858397 -0.2741193 0.6741531
vn -0.6858397 -0.2741192 0.6741531
vn -0.6886057 -0.258795 0.6773827
vn -0.6886057 -0.258795 0.6773827
vn 0.6858397 -0.274119 0.6741533
vn 0.6858397 -0.274119 0.6741533
vn 0.6858397 -0.2741191 0.6741533
vn 0.688606 -0.2587932 0.6773831
vn 0.688606 -0.2587932 0.6773831
vn 0.199839 0.9606718 0.1928061
vn 0.199839 0.9606718 0.192806
vn 0.199839 0.9606718 0.1928061
vn -0.1998391 0.9606718 0.1928054
vn -0.1998391 0.9606718 0.1928054
vn -0.1998391 0.9606718 0.1928054
vn -0.4520362 -0.3174355 -0.8336054
vn -0.4520362 -0.3174356 -0.8336054
vn -0.4520362 -0.3174356 -0.8336054
vn -0.4520362 -0.3174356 -0.8336054
vn -0.486746 -0.3264332 -0.810259
vn -0.486746 -0.3264332 -0.810259
vn 0.4520364 -0.3174352 0.8336055
vn 0.4520363 -0.3174351 0.8336055
vn 0.4520363 -0.3174351 0.8336055
vn 0.4520363 -0.3174351 0.8336055
vn 0.4867458 -0.3264331 0.8102592
vn 0.4867458 -0.3264331 0.8102592
vn 0.8559012 -0.5171394 0
vn 0.8559012 -0.5171393 0
vn 0.8559012 -0.5171394 0
vn 0.8559012 -0.5171393 0
vn -0.9323635 -0.3615222 -1.010807E-07
vn -0.9323635 -0.3615222 -1.010807E-07
vn -0.9323635 -0.3615222 -1.010807E-07
vn -0.9323635 -0.3615222 -1.010807E-07
vn -0.9285112 -0.3713044 -2.135384E-07
vn -0.9285112 -0.3713044 -2.135384E-07
vn 0.9323635 0.3615222 0
vn 0.9323635 0.3615222 0
vn 0.9323635 0.3615222 0
vn 0.9323635 0.3615222 0
vn -0.1592261 0.9872422 0
vn -0.1592261 0.9872422 0
vn -0.1592261 0.9872422 0
vn -0.1592261 0.9872422 0
vn -0.2035607 0.9790624 0
vn -0.2035607 0.9790624 0
vn 0.1247953 0.9719542 -0.1993271
vn 0.1247953 0.9719542 -0.1993271
vn 0.1247953 0.9719542 -0.1993271
vn 0.1247953 0.9719542 -0.1993271
vn -0.4867463 -0.326433 0.810259
vn -0.4867463 -0.326433 0.810259
vn -0.4867463 -0.326433 0.8102589
vn -0.4867463 -0.326433 0.8102589
vn -0.4520366 -0.3174353 0.8336052
vn -0.4520366 -0.3174353 0.8336052
vn 0.1247954 0.9719541 0.1993272
vn 0.1247954 0.9719541 0.1993272
vn 0.1247954 0.9719541 0.1993272
vn 0.1247954 0.9719541 0.1993272
vn 0.9285113 -0.3713042 0
vn 0.9285113 -0.3713042 0
vn 0.9285113 -0.3713042 0
vn 0.9285113 -0.3713041 0
vn 0.9323649 -0.3615187 0
vn 0.9323649 -0.3615187 0
vn 0.2035606 0.9790624 -1.055742E-07
vn 0.2035606 0.9790624 -1.055742E-07
vn 0.2035606 0.9790624 -1.055742E-07
vn 0.2035606 0.9790624 -1.055742E-07
vn 0.1592191 0.9872432 0
vn 0.1592191 0.9872432 0
vn -0.4520363 0.317435 -0.8336056
vn -0.4520363 0.317435 -0.8336056
vn -0.4520363 0.317435 -0.8336056
vn -0.4520363 0.317435 -0.8336055
vn 0.4520362 0.3174354 0.8336054
vn 0.4520362 0.3174355 0.8336055
vn 0.4520362 0.3174354 0.8336054
vn 0.4520362 0.3174354 0.8336054
vn -0.9323649 0.3615187 0
vn -0.9323649 0.3615187 0
vn -0.9323649 0.3615187 0
vn -0.9323649 0.3615187 0
vn -0.688606 0.2587933 0.6773831
vn -0.688606 0.2587933 0.6773831
vn -0.688606 0.2587933 0.6773831
vn -0.688606 0.2587933 0.6773831
vn 0.6886057 0.2587951 -0.6773828
vn 0.6886057 0.2587951 -0.6773828
vn 0.6886057 0.2587951 -0.6773828
vn 0.6886057 0.2587951 -0.6773828
vn -0.6886059 0.2587933 -0.6773831
vn -0.6886059 0.2587933 -0.6773831
vn -0.6886059 0.2587933 -0.6773831
vn -0.6886059 0.2587933 -0.6773831
vn 0.6886057 0.2587954 0.6773827
vn 0.6886055 0.2587953 0.6773827
vn 0.6886055 0.2587953 0.6773827
vn 0.6886055 0.2587953 0.6773827
vn 0.4520363 -0.3174355 -0.8336054
vn 0.4520362 -0.3174354 -0.8336054
vn 0.4520362 -0.3174354 -0.8336054
vn 0.4520363 -0.3174355 -0.8336054
vn 0.4867458 -0.3264331 -0.8102592
vn 0.4867457 -0.3264332 -0.8102592
vn -0.8559016 -0.5171387 0
vn -0.8559016 -0.5171387 0
vn -0.8559016 -0.5171387 0
vn -0.8559016 -0.5171387 0
vn -0.1247993 0.9719537 -0.1993267
vn -0.1247993 0.9719537 -0.1993267
vn -0.1247993 0.9719537 -0.1993267
vn -0.1247993 0.9719537 -0.1993267
vn -0.1247993 0.9719537 0.1993268
vn -0.1247993 0.9719537 0.1993268
vn -0.1247993 0.9719537 0.1993267
vn -0.1247993 0.9719537 0.1993267
vn 0.4520361 0.3174354 -0.8336055
vn 0.4520361 0.3174354 -0.8336055
vn 0.4520361 0.3174354 -0.8336055
vn 0.452036 0.3174354 -0.8336055
vn -0.4520366 0.3174352 0.8336053
vn -0.4520366 0.3174352 0.8336053
vn -0.4520366 0.3174352 0.8336053
vn -0.4520366 0.3174352 0.8336053
g mesh_diamond2_0
f 3/3/3 2/2/2 1/1/1
f 4/4/4 1/1/1 2/2/2
f 5/5/5 4/4/4 2/2/2
f 8/8/8 7/7/7 6/6/6
f 9/9/9 8/8/8 6/6/6
f 10/10/10 9/9/9 6/6/6
f 13/13/13 12/12/12 11/11/11
f 16/16/16 15/15/15 14/14/14
f 19/19/19 18/18/18 17/17/17
f 20/20/20 18/18/18 19/19/19
f 21/21/21 20/20/20 19/19/19
f 24/24/24 23/23/23 22/22/22
f 25/25/25 24/24/24 22/22/22
f 26/26/26 25/25/25 22/22/22
f 29/29/29 28/28/28 27/27/27
f 32/32/32 31/31/31 30/30/30
f 35/35/35 34/34/34 33/33/33
f 36/36/36 35/35/35 33/33/33
f 34/34/34 37/37/37 33/33/33
f 37/37/37 38/38/38 33/33/33
f 41/41/41 40/40/40 39/39/39
f 42/42/42 41/41/41 39/39/39
f 39/39/39 40/40/40 43/43/43
f 44/44/44 39/39/39 43/43/43
f 47/47/47 46/46/46 45/45/45
f 48/48/48 47/47/47 45/45/45
f 51/51/51 50/50/50 49/49/49
f 52/52/52 51/51/51 49/49/49
f 52/52/52 49/49/49 53/53/53
f 54/54/54 52/52/52 53/53/53
f 57/57/57 56/56/56 55/55/55
f 58/58/58 57/57/57 55/55/55
f 61/61/61 60/60/60 59/59/59
f 62/62/62 61/61/61 59/59/59
f 62/62/62 59/59/59 63/63/63
f 64/64/64 62/62/62 63/63/63
f 67/67/67 66/66/66 65/65/65
f 68/68/68 67/67/67 65/65/65
f 71/71/71 70/70/70 69/69/69
f 72/72/72 71/71/71 69/69/69
f 70/70/70 71/71/71 73/73/73
f 74/74/74 70/70/70 73/73/73
f 77/77/77 76/76/76 75/75/75
f 78/78/78 77/77/77 75/75/75
f 81/81/81 80/80/80 79/79/79
f 82/82/82 81/81/81 79/79/79
f 82/82/82 79/79/79 83/83/83
f 79/79/79 84/84/84 83/83/83
f 87/87/87 86/86/86 85/85/85
f 88/88/88 87/87/87 85/85/85
f 88/88/88 85/85/85 89/89/89
f 85/85/85 90/90/90 89/89/89
f 93/93/93 92/92/92 91/91/91
f 94/94/94 93/93/93 91/91/91
f 97/97/97 96/96/96 95/95/95
f 98/98/98 97/97/97 95/95/95
f 101/101/101 100/100/100 99/99/99
f 102/102/102 101/101/101 99/99/99
f 105/105/105 104/104/104 103/103/103
f 106/106/106 105/105/105 103/103/103
f 109/109/109 108/108/108 107/107/107
f 110/110/110 109/109/109 107/107/107
f 113/113/113 112/112/112 111/111/111
f 114/114/114 113/113/113 111/111/111
f 117/117/117 116/116/116 115/115/115
f 118/118/118 117/117/117 115/115/115
f 121/121/121 120/120/120 119/119/119
f 122/122/122 121/121/121 119/119/119
f 121/121/121 123/123/123 120/120/120
f 123/123/123 124/124/124 120/120/120
f 127/127/127 126/126/126 125/125/125
f 128/128/128 127/127/127 125/125/125
f 131/131/131 130/130/130 129/129/129
f 132/132/132 131/131/131 129/129/129
f 135/135/135 134/134/134 133/133/133
f 136/136/136 135/135/135 133/133/133
f 139/139/139 138/138/138 137/137/137
f 140/140/140 139/139/139 137/137/137
f 143/143/143 142/142/142 141/141/141
f 144/144/144 143/143/143 141/141/141
