g plane02
v -0.02878106 -5.544455E-05 -0.02837467
v -0.05478211 -5.780966E-05 -0.05248202
v -0.05372259 -5.780966E-05 -0.05372256
v -0.02746473 -5.544455E-05 -0.0297218
v -0.02398062 -5.544455E-05 -0.03161197
v -0.02182228 -5.544455E-05 -0.03196184
v -0.04465711 -5.780966E-05 -0.0614652
v -0.02028052 -5.546362E-05 -0.03221175
v -0.01543723 -5.546362E-05 -0.03225062
v -0.03449204 -5.780966E-05 -0.06769437
v -0.009857292 -5.546362E-05 -0.03225061
v -0.02347765 -5.780966E-05 -0.0722567
v -0.004823535 -5.546362E-05 -0.0322506
v -0.01188516 -5.780966E-05 -0.0750398
v 0 -5.546362E-05 -0.03225061
v 5.304813E-08 -5.780966E-05 -0.07597516
v 0.01188511 -5.780966E-05 -0.0750398
v 0.004823535 -5.546362E-05 -0.0322506
v 0.02347765 -5.780966E-05 -0.0722567
v 0.009857292 -5.546362E-05 -0.03225061
v 0.03449204 -5.780966E-05 -0.06769437
v 0.01543723 -5.546362E-05 -0.03225062
v 0.04465711 -5.780966E-05 -0.0614652
v 0.02028052 -5.546362E-05 -0.03221175
v 0.02175489 -5.544455E-05 -0.03197276
v 0.05372259 -5.780966E-05 -0.05372256
v 0.02398062 -5.544455E-05 -0.03161197
v 0.02746473 -5.544455E-05 -0.0297218
v 0.02894937 -5.544455E-05 -0.02820243
v 0.05478211 -5.780966E-05 -0.05248202
vt 0.3480927 0.6546899
vt 0.1955115 0.7957361
vt 0.2014005 0.8026313
vt 0.355122 0.661884
vt 0.3737094 0.6725609
vt 0.3851779 0.67442
vt 0.2517881 0.8456662
vt 0.3933472 0.6757441
vt 0.4190521 0.6757441
vt 0.3082873 0.8802891
vt 0.4486668 0.6757441
vt 0.3695071 0.9056472
vt 0.4753827 0.6757439
vt 0.4339401 0.9211161
vt 0.5009828 0.6757441
vt 0.4999999 0.9263151
vt 0.5660597 0.9211161
vt 0.526583 0.6757439
vt 0.6304927 0.9056472
vt 0.5532988 0.6757441
vt 0.6917126 0.8802891
vt 0.5829134 0.6757441
vt 0.7482117 0.8456662
vt 0.6086184 0.6757441
vt 0.6167877 0.67442
vt 0.7985992 0.8026313
vt 0.6282561 0.6725609
vt 0.6468437 0.661884
vt 0.6538728 0.6546899
vt 0.8044882 0.7957361
vn -4.905409E-05 1 -3.669074E-05
vn -4.905409E-05 1 -3.669074E-05
vn -3.919811E-05 1 -5.201715E-05
vn -3.877311E-05 1 -5.267803E-05
vn -3.714363E-05 1 -5.521192E-05
vn -2.69115E-05 1 -5.744618E-05
vn -2.945949E-05 1 -5.688981E-05
vn -2.189836E-05 1 -5.854083E-05
vn -1.749995E-05 1 -5.564351E-05
vn -1.857036E-05 1 -5.63486E-05
vn -1.151286E-05 1 -5.439265E-05
vn -1.218491E-05 1 -5.435472E-05
vn -5.728441E-06 1 -5.502817E-05
vn -6.058136E-06 1 -5.497939E-05
vn -3.022309E-06 1 -5.542854E-05
vn -3.022309E-06 1 -5.542853E-05
vn 6.058154E-06 1 -5.46167E-05
vn 5.728466E-06 1 -5.459749E-05
vn 1.21849E-05 1 -5.516703E-05
vn 1.151284E-05 1 -5.50857E-05
vn 1.858216E-05 1 -5.719806E-05
vn 1.750671E-05 1 -5.665878E-05
vn 2.946654E-05 1 -5.665726E-05
vn 2.193324E-05 1 -5.887842E-05
vn 2.692064E-05 1 -5.740791E-05
vn 3.921784E-05 1 -5.168299E-05
vn 3.705381E-05 1 -5.442019E-05
vn 3.87741E-05 1 -5.224426E-05
vn 4.896881E-05 1 -3.93493E-05
vn 4.896882E-05 1 -3.934931E-05
g plane02_0
f 3/3/3 2/2/2 1/1/1
f 4/4/4 3/3/3 1/1/1
f 3/3/3 4/4/4 5/5/5
f 3/3/3 5/5/5 6/6/6
f 6/6/6 7/7/7 3/3/3
f 7/7/7 6/6/6 8/8/8
f 7/7/7 8/8/8 9/9/9
f 9/9/9 10/10/10 7/7/7
f 10/10/10 9/9/9 11/11/11
f 12/12/12 10/10/10 11/11/11
f 12/12/12 11/11/11 13/13/13
f 14/14/14 12/12/12 13/13/13
f 14/14/14 13/13/13 15/15/15
f 16/16/16 14/14/14 15/15/15
f 17/17/17 16/16/16 15/15/15
f 18/18/18 17/17/17 15/15/15
f 19/19/19 17/17/17 18/18/18
f 20/20/20 19/19/19 18/18/18
f 21/21/21 19/19/19 20/20/20
f 22/22/22 21/21/21 20/20/20
f 23/23/23 21/21/21 22/22/22
f 22/22/22 24/24/24 23/23/23
f 24/24/24 25/25/25 23/23/23
f 26/26/26 23/23/23 25/25/25
f 25/25/25 27/27/27 26/26/26
f 27/27/27 28/28/28 26/26/26
f 26/26/26 28/28/28 29/29/29
f 30/30/30 26/26/26 29/29/29
