g mjpai10
v 0.01516972 0.009891763 -0.02252278
v -0.01516849 0.009891763 -0.02252278
v -0.01516849 -0.009890813 -0.02252278
v 0.01516972 -0.009890816 -0.02252278
v -0.01655575 -0.01041355 -0.02097576
v -0.01655575 0.0104145 -0.02097575
v -0.01579651 0.01118207 -0.02097575
v -0.01639393 0.0109524 -0.01923288
v 0.01579773 0.01118207 -0.02097575
v 0.01655697 0.0104145 -0.02097575
v 0.01639515 0.0109524 -0.01923288
v 0.01655697 -0.01041355 -0.02097576
v 0.01579773 -0.01118112 -0.02097576
v 0.01639515 -0.01095145 -0.01923287
v -0.01579651 -0.01118112 -0.02097576
v -0.01639393 -0.01095145 -0.01923287
v -0.01696724 -0.009890813 -0.01904857
v -0.01516849 -0.01157887 -0.01904857
v 0.01516972 -0.01157887 -0.01904857
v 0.01696739 -0.009890816 -0.01904857
v -0.01516849 0.01157886 -0.01904857
v -0.01696724 0.009891763 -0.01904857
v -0.01696724 -0.009890812 0.0190493
v -0.01696724 0.009891762 0.0190493
v 0.01696739 0.009891763 -0.01904857
v 0.01696739 0.009891761 0.0190493
v 0.01696739 -0.009890813 0.0190493
v 0.01516972 -0.01157887 -0.01904857
v -0.01516849 -0.01157887 -0.01904857
v 0.01647461 0.01020639 0.02112035
v 0.01639515 0.0109524 0.0192336
v 0.01571915 0.01095861 0.02112035
v 0.01516972 0.009891761 0.02252278
v 0.01647461 -0.01020544 0.02112035
v 0.01516972 -0.009890813 0.02252278
v -0.01516849 -0.009890812 0.02252278
v -0.01516849 0.009891762 0.02252278
v -0.01571793 -0.01095767 0.02112035
v 0.01571915 -0.01095767 0.02112035
v 0.01639515 -0.01095145 0.0192336
v -0.01571793 0.01095862 0.02112035
v -0.01647339 0.01020639 0.02112035
v -0.01639393 0.0109524 0.0192336
v -0.01647339 -0.01020544 0.02112035
v -0.01639393 -0.01095145 0.0192336
v -0.01696724 -0.009890812 0.0190493
v -0.01516849 -0.01157886 0.0190493
v 0.01516972 -0.01157886 0.0190493
v -0.01516849 0.01157886 0.0190493
v -0.01696724 0.009891762 0.0190493
v 0.01516972 -0.01157886 0.0190493
v 0.01516972 0.01157886 0.0190493
v 0.01516972 -0.01157886 0.0190493
v 0.01516972 -0.01157887 -0.01904857
v 0.01516972 0.01157886 0.0190493
v 0.01516972 0.01157886 0.0190493
v 0.01516972 0.01157887 -0.01904857
v 0.01516972 0.01157887 -0.01904857
v 0.01516972 0.01157887 -0.01904857
v -0.01516849 0.01157886 -0.01904857
v 0.01516972 -0.01157886 0.0190493
v 0.01516972 -0.01157887 -0.01904857
v -0.01516849 -0.01157887 -0.01904857
v -0.01516849 -0.01157886 0.0190493
v -0.01516849 0.01157886 0.0190493
v -0.01516849 0.01157886 -0.01904857
v 0.01516972 0.01157887 -0.01904857
v 0.01516972 0.01157886 0.0190493
v -0.01516849 -0.01157887 -0.01904857
v -0.01639393 -0.01095145 0.0192336
v -0.01516849 -0.01157886 0.0190493
v -0.01516849 0.01157886 0.0190493
v -0.01639393 0.0109524 0.0192336
v -0.01516849 0.01157886 -0.01904857
vt 0.6956305 0.07980973
vt 0.8378658 0.07980973
vt 0.8378658 0.01099355
vt 0.6956305 0.01099343
vt 0.8417314 0.01066059
vt 0.8417314 0.08014268
vt 0.8394759 0.08270318
vt 0.8434021 0.08270318
vt 0.6940203 0.08270318
vt 0.6917649 0.08014268
vt 0.6900941 0.08270318
vt 0.6917649 0.01066059
vt 0.6940203 0.008099979
vt 0.6900941 0.008099979
vt 0.8394759 0.008099979
vt 0.8434021 0.008099979
vt 0.8455554 0.01099355
vt 0.8411452 0.00592131
vt 0.6923509 0.00592131
vt 0.6879408 0.01099343
vt 0.8411452 0.08488185
vt 0.8455554 0.07980973
vt 0.9900374 0.01099343
vt 0.9900374 0.07980973
vt 0.6879408 0.07980973
vt 0.5434587 0.07980973
vt 0.5434587 0.01099343
vt 0.6923509 0.00592131
vt 0.8411452 0.00592131
vt 0.5396346 0.08014262
vt 0.5413055 0.08270318
vt 0.5373792 0.08270318
vt 0.5357692 0.07980973
vt 0.5396346 0.01066059
vt 0.5357692 0.01099343
vt 0.3935339 0.01099343
vt 0.3935339 0.07980973
vt 0.3919237 0.008099979
vt 0.5373792 0.008099979
vt 0.5413055 0.008099979
vt 0.3919237 0.08270318
vt 0.3896684 0.08014262
vt 0.3879974 0.08270318
vt 0.3896684 0.01066059
vt 0.3879974 0.008099979
vt 0.3858443 0.01099343
vt 0.3902543 0.00592131
vt 0.5390487 0.00592131
vt 0.3902543 0.08488185
vt 0.3858443 0.07980973
vt 0.5390487 0.00592131
vt 0.5390487 0.08488185
vt 0.5390487 0.00592131
vt 0.6923509 0.00592131
vt 0.5390487 0.08488185
vt 0.5390487 0.08488185
vt 0.6923509 0.08488185
vt 0.6923509 0.08488185
vt 0.6923509 0.08488185
vt 0.8411452 0.08488185
vt 0.3790736 0.1540997
vt 0.3790736 0.005408913
vt 0.2734919 0.005408913
vt 0.2734919 0.1540997
vt 0.09700613 0.8100928
vt 0.09700613 0.6847879
vt 0.008007839 0.6847879
vt 0.008007839 0.8100928
vt 0.8411452 0.00592131
vt 0.9921905 0.008099979
vt 0.9944475 0.00592131
vt 0.9944475 0.08488185
vt 0.9921905 0.08270318
vt 0.8411452 0.08488185
vn 0.3675138 0.3725813 -0.8521248
vn -0.3675138 0.3725813 -0.8521248
vn -0.367514 -0.3725801 -0.8521253
vn 0.3675138 -0.3725804 -0.8521253
vn -0.8451315 -0.3718381 -0.3840432
vn -0.8451311 0.3718393 -0.3840428
vn -0.3717674 0.8507789 -0.3714355
vn -0.7010813 0.711211 -0.05161459
vn 0.3717676 0.8507787 -0.3714356
vn 0.8452597 0.3717067 -0.3838884
vn 0.7012997 0.7109988 -0.05157064
vn 0.8452598 -0.3717061 -0.3838886
vn 0.3718716 -0.8506727 -0.3715743
vn 0.7014678 -0.7108299 -0.05161116
vn -0.3718721 -0.8506724 -0.3715745
vn -0.7012504 -0.7110412 -0.05165539
vn -0.9673501 -0.2435758 -0.07003279
vn -0.2339125 -0.9702973 -0.06171019
vn 0.2339123 -0.9702973 -0.06171018
vn 0.9674587 -0.2432023 -0.06982995
vn -0.2336167 0.97038 -0.06153028
vn -0.9673501 0.2435759 -0.07003259
vn -0.9659822 -0.2398825 0.096617
vn -0.9659821 0.2398827 0.09661696
vn 0.9674587 0.2432023 -0.06982984
vn 0.9660942 0.2395127 0.09641374
vn 0.9660944 -0.2395123 0.09641357
vn 0.2339123 -0.9702973 -0.06171018
vn -0.2339125 -0.9702973 -0.06171019
vn 0.8302587 0.3670122 0.4194907
vn 0.6963667 0.7088968 0.1119764
vn 0.3586555 0.8367013 0.4138807
vn 0.3697603 0.3888808 0.84383
vn 0.8302589 -0.367012 0.4194906
vn 0.3697602 -0.3888806 0.8438302
vn -0.3697607 -0.3888801 0.8438301
vn -0.3697604 0.3888804 0.8438302
vn -0.3587606 -0.8365977 0.413999
vn 0.3587592 -0.8365983 0.4139989
vn 0.6965356 -0.7087261 0.1120063
vn -0.3586557 0.8367013 0.4138805
vn -0.8301275 0.3671393 0.4196391
vn -0.6961456 0.7091068 0.1120216
vn -0.8301279 -0.3671388 0.419639
vn -0.6963154 -0.7089353 0.1120518
vn -0.9659822 -0.2398825 0.096617
vn -0.2296942 -0.9666083 0.1136177
vn 0.2296936 -0.9666084 0.1136178
vn -0.2293985 0.9666975 0.1134558
vn -0.9659821 0.2398827 0.09661696
vn 0.2296936 -0.9666084 0.1136178
vn 0.2293992 0.9666973 0.1134562
vn 0.2296936 -0.9666084 0.1136178
vn 0.2339123 -0.9702973 -0.06171018
vn 0.2293992 0.9666973 0.1134562
vn 0.2293992 0.9666973 0.1134562
vn 0.2336174 0.9703798 -0.06153043
vn 0.2336174 0.9703798 -0.06153043
vn 0.2336174 0.9703798 -0.06153043
vn -0.2336167 0.97038 -0.06153028
vn 0.2296936 -0.9666084 0.1136178
vn 0.2339123 -0.9702973 -0.06171018
vn -0.2339125 -0.9702973 -0.06171019
vn -0.2296942 -0.9666083 0.1136177
vn -0.2293985 0.9666975 0.1134558
vn -0.2336167 0.97038 -0.06153028
vn 0.2336174 0.9703798 -0.06153043
vn 0.2293992 0.9666973 0.1134562
vn -0.2339125 -0.9702973 -0.06171019
vn -0.6963154 -0.7089353 0.1120518
vn -0.2296942 -0.9666083 0.1136177
vn -0.2293985 0.9666975 0.1134558
vn -0.6961456 0.7091068 0.1120216
vn -0.2336167 0.97038 -0.06153028
g mjpai10_0
f 3/3/3 2/2/2 1/1/1
f 4/4/4 3/3/3 1/1/1
f 3/3/3 5/5/5 2/2/2
f 5/5/5 6/6/6 2/2/2
f 2/2/2 7/7/7 1/1/1
f 2/2/2 6/6/6 7/7/7
f 7/7/7 6/6/6 8/8/8
f 7/7/7 9/9/9 1/1/1
f 1/1/1 10/10/10 4/4/4
f 1/1/1 9/9/9 10/10/10
f 11/11/11 10/10/10 9/9/9
f 10/10/10 12/12/12 4/4/4
f 4/4/4 13/13/13 3/3/3
f 4/4/4 12/12/12 13/13/13
f 14/14/14 13/13/13 12/12/12
f 13/13/13 15/15/15 3/3/3
f 3/3/3 15/15/15 5/5/5
f 5/5/5 15/15/15 16/16/16
f 17/17/17 5/5/5 16/16/16
f 5/5/5 17/17/17 6/6/6
f 18/18/18 16/16/16 15/15/15
f 19/19/19 13/13/13 14/14/14
f 20/20/20 14/14/14 12/12/12
f 21/21/21 7/7/7 8/8/8
f 22/22/22 8/8/8 6/6/6
f 22/22/22 17/17/17 23/23/23
f 23/23/23 17/17/17 16/16/16
f 24/24/24 22/22/22 23/23/23
f 25/25/25 10/10/10 11/11/11
f 25/25/25 20/20/20 12/12/12
f 10/10/10 25/25/25 12/12/12
f 20/20/20 25/25/25 26/26/26
f 25/25/25 11/11/11 26/26/26
f 27/27/27 20/20/20 26/26/26
f 17/17/17 22/22/22 6/6/6
f 13/13/13 28/28/28 15/15/15
f 28/28/28 29/29/29 15/15/15
f 27/27/27 26/26/26 30/30/30
f 26/26/26 31/31/31 30/30/30
f 30/30/30 31/31/31 32/32/32
f 11/11/11 31/31/31 26/26/26
f 33/33/33 30/30/30 32/32/32
f 34/34/34 30/30/30 33/33/33
f 34/34/34 27/27/27 30/30/30
f 35/35/35 34/34/34 33/33/33
f 36/36/36 35/35/35 33/33/33
f 37/37/37 36/36/36 33/33/33
f 33/33/33 32/32/32 37/37/37
f 36/36/36 38/38/38 35/35/35
f 38/38/38 39/39/39 35/35/35
f 35/35/35 39/39/39 34/34/34
f 39/39/39 40/40/40 34/34/34
f 32/32/32 41/41/41 37/37/37
f 37/37/37 42/42/42 36/36/36
f 37/37/37 41/41/41 42/42/42
f 41/41/41 43/43/43 42/42/42
f 42/42/42 44/44/44 36/36/36
f 36/36/36 44/44/44 38/38/38
f 44/44/44 45/45/45 38/38/38
f 46/46/46 45/45/45 44/44/44
f 47/47/47 38/38/38 45/45/45
f 38/38/38 47/47/47 39/39/39
f 48/48/48 40/40/40 39/39/39
f 27/27/27 34/34/34 40/40/40
f 49/49/49 43/43/43 41/41/41
f 50/50/50 42/42/42 43/43/43
f 50/50/50 46/46/46 44/44/44
f 42/42/42 50/50/50 44/44/44
f 47/47/47 51/51/51 39/39/39
f 52/52/52 49/49/49 41/41/41
f 32/32/32 52/52/52 41/41/41
f 20/20/20 27/27/27 40/40/40
f 14/14/14 20/20/20 40/40/40
f 14/14/14 40/40/40 53/53/53
f 54/54/54 14/14/14 53/53/53
f 55/55/55 32/32/32 31/31/31
f 57/57/57 56/56/56 31/31/31
f 11/11/11 57/57/57 31/31/31
f 58/58/58 11/11/11 9/9/9
f 60/60/60 59/59/59 9/9/9
f 7/7/7 60/60/60 9/9/9
f 63/63/63 62/62/62 61/61/61
f 64/64/64 63/63/63 61/61/61
f 67/67/67 66/66/66 65/65/65
f 68/68/68 67/67/67 65/65/65
f 70/70/70 16/16/16 69/69/69
f 71/71/71 70/70/70 69/69/69
f 70/70/70 23/23/23 16/16/16
f 8/8/8 73/73/73 72/72/72
f 74/74/74 8/8/8 72/72/72
f 8/8/8 22/22/22 73/73/73
f 22/22/22 24/24/24 73/73/73
