g mjpai31
v 0.01516968 0.009891763 -0.02252278
v -0.01516861 0.009891763 -0.02252278
v -0.01516861 -0.009890813 -0.02252278
v 0.01516968 -0.009890816 -0.02252278
v -0.01655579 -0.01041355 -0.02097576
v -0.01655579 0.0104145 -0.02097575
v -0.01579659 0.01118207 -0.02097575
v -0.01639404 0.0109524 -0.01923288
v 0.01579765 0.01118207 -0.02097575
v 0.01655685 0.0104145 -0.02097575
v 0.01639511 0.0109524 -0.01923288
v 0.01655685 -0.01041355 -0.02097576
v 0.01579765 -0.01118112 -0.02097576
v 0.01639511 -0.01095145 -0.01923287
v -0.01579659 -0.01118112 -0.02097576
v -0.01639404 -0.01095145 -0.01923287
v -0.01696732 -0.009890813 -0.01904857
v -0.01516861 -0.01157887 -0.01904857
v 0.01516968 -0.01157887 -0.01904857
v 0.01696732 -0.009890816 -0.01904857
v -0.01516861 0.01157886 -0.01904857
v -0.01696732 0.009891763 -0.01904857
v -0.01696732 -0.009890812 0.0190493
v -0.01696732 0.009891762 0.0190493
v 0.01696732 0.009891763 -0.01904857
v 0.01696732 0.009891761 0.0190493
v 0.01696732 -0.009890813 0.0190493
v 0.01516968 -0.01157887 -0.01904857
v -0.01516861 -0.01157887 -0.01904857
v 0.01647453 0.01020639 0.02112035
v 0.01639511 0.0109524 0.0192336
v 0.01571907 0.01095861 0.02112035
v 0.01516968 0.009891761 0.02252278
v 0.01647453 -0.01020544 0.02112035
v 0.01516968 -0.009890813 0.02252278
v -0.01516861 -0.009890812 0.02252278
v -0.01516861 0.009891762 0.02252278
v -0.015718 -0.01095767 0.02112035
v 0.01571907 -0.01095767 0.02112035
v 0.01639511 -0.01095145 0.0192336
v -0.015718 0.01095862 0.02112035
v -0.01647346 0.01020639 0.02112035
v -0.01639404 0.0109524 0.0192336
v -0.01647346 -0.01020544 0.02112035
v -0.01639404 -0.01095145 0.0192336
v -0.01696732 -0.009890812 0.0190493
v -0.01516861 -0.01157886 0.0190493
v 0.01516968 -0.01157886 0.0190493
v -0.01516861 0.01157886 0.0190493
v -0.01696732 0.009891762 0.0190493
v 0.01516968 -0.01157886 0.0190493
v 0.01516968 0.01157886 0.0190493
v 0.01516968 -0.01157886 0.0190493
v 0.01516968 -0.01157887 -0.01904857
v 0.01516968 0.01157886 0.0190493
v 0.01516968 0.01157886 0.0190493
v 0.01516968 0.01157887 -0.01904857
v 0.01516968 0.01157887 -0.01904857
v 0.01516968 0.01157887 -0.01904857
v -0.01516861 0.01157886 -0.01904857
v 0.01516968 -0.01157886 0.0190493
v 0.01516968 -0.01157887 -0.01904857
v -0.01516861 -0.01157887 -0.01904857
v -0.01516861 -0.01157886 0.0190493
v -0.01516861 0.01157886 0.0190493
v -0.01516861 0.01157886 -0.01904857
v 0.01516968 0.01157887 -0.01904857
v 0.01516968 0.01157886 0.0190493
v -0.01516861 -0.01157887 -0.01904857
v -0.01639404 -0.01095145 0.0192336
v -0.01516861 -0.01157886 0.0190493
v -0.01516861 0.01157886 0.0190493
v -0.01639404 0.0109524 0.0192336
v -0.01516861 0.01157886 -0.01904857
vt 0.6956305 0.07980973
vt 0.8378658 0.07980973
vt 0.8378658 0.01099355
vt 0.6956305 0.01099343
vt 0.8417314 0.01066059
vt 0.8417314 0.08014268
vt 0.8394759 0.08270318
vt 0.8434021 0.08270318
vt 0.6940203 0.08270318
vt 0.6917649 0.08014268
vt 0.6900941 0.08270318
vt 0.6917649 0.01066059
vt 0.6940203 0.008099979
vt 0.6900941 0.008099979
vt 0.8394759 0.008099979
vt 0.8434021 0.008099979
vt 0.8455554 0.01099355
vt 0.8411452 0.00592131
vt 0.6923509 0.00592131
vt 0.6879408 0.01099343
vt 0.8411452 0.08488185
vt 0.8455554 0.07980973
vt 0.9900374 0.01099343
vt 0.9900374 0.07980973
vt 0.6879408 0.07980973
vt 0.5434587 0.07980973
vt 0.5434587 0.01099343
vt 0.6923509 0.00592131
vt 0.8411452 0.00592131
vt 0.5396346 0.08014262
vt 0.5413055 0.08270318
vt 0.5373792 0.08270318
vt 0.5357692 0.07980973
vt 0.5396346 0.01066059
vt 0.5357692 0.01099343
vt 0.3935339 0.01099343
vt 0.3935339 0.07980973
vt 0.3919237 0.008099979
vt 0.5373792 0.008099979
vt 0.5413055 0.008099979
vt 0.3919237 0.08270318
vt 0.3896684 0.08014262
vt 0.3879974 0.08270318
vt 0.3896684 0.01066059
vt 0.3879974 0.008099979
vt 0.3858443 0.01099343
vt 0.3902543 0.00592131
vt 0.5390487 0.00592131
vt 0.3902543 0.08488185
vt 0.3858443 0.07980973
vt 0.5390487 0.00592131
vt 0.5390487 0.08488185
vt 0.5390487 0.00592131
vt 0.6923509 0.00592131
vt 0.5390487 0.08488185
vt 0.5390487 0.08488185
vt 0.6923509 0.08488185
vt 0.6923509 0.08488185
vt 0.6923509 0.08488185
vt 0.8411452 0.08488185
vt 0.3790736 0.1540997
vt 0.3790736 0.005408913
vt 0.2734919 0.005408913
vt 0.2734919 0.1540997
vt 0.4227294 0.4801858
vt 0.4227294 0.3425198
vt 0.3249516 0.3425198
vt 0.3249516 0.4801858
vt 0.8411452 0.00592131
vt 0.9921905 0.008099979
vt 0.9944475 0.00592131
vt 0.9944475 0.08488185
vt 0.9921905 0.08270318
vt 0.8411452 0.08488185
vn 0.3675264 0.372581 -0.8521196
vn -0.3675264 0.372581 -0.8521196
vn -0.3675266 -0.3725797 -0.8521201
vn 0.3675264 -0.37258 -0.85212
vn -0.8451365 -0.3718219 -0.3840478
vn -0.8451362 0.3718231 -0.3840474
vn -0.3717749 0.8507734 -0.3714404
vn -0.7010927 0.7111987 -0.05162748
vn 0.3717752 0.8507733 -0.3714405
vn 0.8452647 0.3716905 -0.383893
vn 0.7013111 0.7109866 -0.05158354
vn 0.8452649 -0.3716899 -0.3838932
vn 0.3718792 -0.8506672 -0.3715792
vn 0.7014793 -0.7108176 -0.05162405
vn -0.3718797 -0.8506669 -0.3715795
vn -0.7012619 -0.7110289 -0.05166827
vn -0.967353 -0.2435611 -0.0700447
vn -0.2339121 -0.9702972 -0.0617126
vn 0.2339119 -0.9702973 -0.0617126
vn 0.9674616 -0.2431876 -0.06984184
vn -0.2336163 0.9703799 -0.06153269
vn -0.9673529 0.2435613 -0.0700445
vn -0.9659855 -0.2398685 0.09661846
vn -0.9659854 0.2398688 0.09661841
vn 0.9674616 0.2431876 -0.06984172
vn 0.9660975 0.2394987 0.0964152
vn 0.9660977 -0.2394983 0.09641502
vn 0.2339119 -0.9702973 -0.0617126
vn -0.2339121 -0.9702972 -0.0617126
vn 0.8302619 0.3670062 0.4194897
vn 0.6963741 0.7088885 0.1119828
vn 0.3586552 0.8367004 0.4138826
vn 0.3697655 0.3888833 0.8438265
vn 0.8302621 -0.3670059 0.4194895
vn 0.3697655 -0.388883 0.8438267
vn -0.3697661 -0.3888825 0.8438267
vn -0.3697657 0.3888829 0.8438267
vn -0.3587603 -0.8365968 0.414001
vn 0.3587589 -0.8365974 0.414001
vn 0.696543 -0.7087179 0.1120126
vn -0.3586555 0.8367004 0.4138825
vn -0.8301308 0.3671332 0.4196381
vn -0.696153 0.7090985 0.1120279
vn -0.8301311 -0.3671326 0.4196379
vn -0.6963229 -0.708927 0.1120582
vn -0.9659855 -0.2398685 0.09661846
vn -0.2296938 -0.9666081 0.1136198
vn 0.2296932 -0.9666083 0.11362
vn -0.2293981 0.9666974 0.1134579
vn -0.9659854 0.2398688 0.09661841
vn 0.2296932 -0.9666083 0.11362
vn 0.2293988 0.9666972 0.1134583
vn 0.2296932 -0.9666083 0.11362
vn 0.2339119 -0.9702973 -0.0617126
vn 0.2293988 0.9666972 0.1134583
vn 0.2293988 0.9666972 0.1134583
vn 0.233617 0.9703797 -0.06153284
vn 0.233617 0.9703797 -0.06153284
vn 0.233617 0.9703797 -0.06153284
vn -0.2336163 0.9703799 -0.06153269
vn 0.2296932 -0.9666083 0.11362
vn 0.2339119 -0.9702973 -0.0617126
vn -0.2339121 -0.9702972 -0.0617126
vn -0.2296938 -0.9666081 0.1136198
vn -0.2293981 0.9666974 0.1134579
vn -0.2336163 0.9703799 -0.06153269
vn 0.233617 0.9703797 -0.06153284
vn 0.2293988 0.9666972 0.1134583
vn -0.2339121 -0.9702972 -0.0617126
vn -0.6963229 -0.708927 0.1120582
vn -0.2296938 -0.9666081 0.1136198
vn -0.2293981 0.9666974 0.1134579
vn -0.696153 0.7090985 0.1120279
vn -0.2336163 0.9703799 -0.06153269
g mjpai31_0
f 3/3/3 2/2/2 1/1/1
f 4/4/4 3/3/3 1/1/1
f 3/3/3 5/5/5 2/2/2
f 5/5/5 6/6/6 2/2/2
f 2/2/2 7/7/7 1/1/1
f 2/2/2 6/6/6 7/7/7
f 7/7/7 6/6/6 8/8/8
f 7/7/7 9/9/9 1/1/1
f 1/1/1 10/10/10 4/4/4
f 1/1/1 9/9/9 10/10/10
f 11/11/11 10/10/10 9/9/9
f 10/10/10 12/12/12 4/4/4
f 4/4/4 13/13/13 3/3/3
f 4/4/4 12/12/12 13/13/13
f 14/14/14 13/13/13 12/12/12
f 13/13/13 15/15/15 3/3/3
f 3/3/3 15/15/15 5/5/5
f 5/5/5 15/15/15 16/16/16
f 17/17/17 5/5/5 16/16/16
f 5/5/5 17/17/17 6/6/6
f 18/18/18 16/16/16 15/15/15
f 19/19/19 13/13/13 14/14/14
f 20/20/20 14/14/14 12/12/12
f 21/21/21 7/7/7 8/8/8
f 22/22/22 8/8/8 6/6/6
f 22/22/22 17/17/17 23/23/23
f 23/23/23 17/17/17 16/16/16
f 24/24/24 22/22/22 23/23/23
f 25/25/25 10/10/10 11/11/11
f 25/25/25 20/20/20 12/12/12
f 10/10/10 25/25/25 12/12/12
f 20/20/20 25/25/25 26/26/26
f 25/25/25 11/11/11 26/26/26
f 27/27/27 20/20/20 26/26/26
f 17/17/17 22/22/22 6/6/6
f 13/13/13 28/28/28 15/15/15
f 28/28/28 29/29/29 15/15/15
f 27/27/27 26/26/26 30/30/30
f 26/26/26 31/31/31 30/30/30
f 30/30/30 31/31/31 32/32/32
f 11/11/11 31/31/31 26/26/26
f 33/33/33 30/30/30 32/32/32
f 34/34/34 30/30/30 33/33/33
f 34/34/34 27/27/27 30/30/30
f 35/35/35 34/34/34 33/33/33
f 36/36/36 35/35/35 33/33/33
f 37/37/37 36/36/36 33/33/33
f 33/33/33 32/32/32 37/37/37
f 36/36/36 38/38/38 35/35/35
f 38/38/38 39/39/39 35/35/35
f 35/35/35 39/39/39 34/34/34
f 39/39/39 40/40/40 34/34/34
f 32/32/32 41/41/41 37/37/37
f 37/37/37 42/42/42 36/36/36
f 37/37/37 41/41/41 42/42/42
f 41/41/41 43/43/43 42/42/42
f 42/42/42 44/44/44 36/36/36
f 36/36/36 44/44/44 38/38/38
f 44/44/44 45/45/45 38/38/38
f 46/46/46 45/45/45 44/44/44
f 47/47/47 38/38/38 45/45/45
f 38/38/38 47/47/47 39/39/39
f 48/48/48 40/40/40 39/39/39
f 27/27/27 34/34/34 40/40/40
f 49/49/49 43/43/43 41/41/41
f 50/50/50 42/42/42 43/43/43
f 50/50/50 46/46/46 44/44/44
f 42/42/42 50/50/50 44/44/44
f 47/47/47 51/51/51 39/39/39
f 52/52/52 49/49/49 41/41/41
f 32/32/32 52/52/52 41/41/41
f 20/20/20 27/27/27 40/40/40
f 14/14/14 20/20/20 40/40/40
f 14/14/14 40/40/40 53/53/53
f 54/54/54 14/14/14 53/53/53
f 55/55/55 32/32/32 31/31/31
f 57/57/57 56/56/56 31/31/31
f 11/11/11 57/57/57 31/31/31
f 58/58/58 11/11/11 9/9/9
f 60/60/60 59/59/59 9/9/9
f 7/7/7 60/60/60 9/9/9
f 63/63/63 62/62/62 61/61/61
f 64/64/64 63/63/63 61/61/61
f 67/67/67 66/66/66 65/65/65
f 68/68/68 67/67/67 65/65/65
f 70/70/70 16/16/16 69/69/69
f 71/71/71 70/70/70 69/69/69
f 70/70/70 23/23/23 16/16/16
f 8/8/8 73/73/73 72/72/72
f 74/74/74 8/8/8 72/72/72
f 8/8/8 22/22/22 73/73/73
f 22/22/22 24/24/24 73/73/73
