g mjpai04
v 0.01516972 0.009891763 -0.02252278
v -0.01516851 0.009891763 -0.02252278
v -0.01516851 -0.009890813 -0.02252278
v 0.01516972 -0.009890816 -0.02252278
v -0.01655574 -0.01041355 -0.02097576
v -0.01655574 0.0104145 -0.02097575
v -0.01579652 0.01118207 -0.02097575
v -0.01639394 0.0109524 -0.01923288
v 0.01579773 0.01118207 -0.02097575
v 0.01655695 0.0104145 -0.02097575
v 0.01639515 0.0109524 -0.01923288
v 0.01655695 -0.01041355 -0.02097576
v 0.01579773 -0.01118112 -0.02097576
v 0.01639515 -0.01095145 -0.01923287
v -0.01579652 -0.01118112 -0.02097576
v -0.01639394 -0.01095145 -0.01923287
v -0.01696724 -0.009890813 -0.01904857
v -0.01516851 -0.01157887 -0.01904857
v 0.01516972 -0.01157887 -0.01904857
v 0.01696739 -0.009890816 -0.01904857
v -0.01516851 0.01157886 -0.01904857
v -0.01696724 0.009891763 -0.01904857
v -0.01696724 -0.009890812 0.0190493
v -0.01696724 0.009891762 0.0190493
v 0.01696739 0.009891763 -0.01904857
v 0.01696739 0.009891761 0.0190493
v 0.01696739 -0.009890813 0.0190493
v 0.01516972 -0.01157887 -0.01904857
v -0.01516851 -0.01157887 -0.01904857
v 0.01647459 0.01020639 0.02112035
v 0.01639515 0.0109524 0.0192336
v 0.01571916 0.01095861 0.02112035
v 0.01516972 0.009891761 0.02252278
v 0.01647459 -0.01020544 0.02112035
v 0.01516972 -0.009890813 0.02252278
v -0.01516851 -0.009890812 0.02252278
v -0.01516851 0.009891762 0.02252278
v -0.01571794 -0.01095767 0.02112035
v 0.01571916 -0.01095767 0.02112035
v 0.01639515 -0.01095145 0.0192336
v -0.01571793 0.01095862 0.02112035
v -0.01647338 0.01020639 0.02112035
v -0.01639394 0.0109524 0.0192336
v -0.01647338 -0.01020544 0.02112035
v -0.01639394 -0.01095145 0.0192336
v -0.01696724 -0.009890812 0.0190493
v -0.01516851 -0.01157886 0.0190493
v 0.01516972 -0.01157886 0.0190493
v -0.01516851 0.01157886 0.0190493
v -0.01696724 0.009891762 0.0190493
v 0.01516972 -0.01157886 0.0190493
v 0.01516972 0.01157886 0.0190493
v 0.01516972 -0.01157886 0.0190493
v 0.01516972 -0.01157887 -0.01904857
v 0.01516972 0.01157886 0.0190493
v 0.01516972 0.01157886 0.0190493
v 0.01516972 0.01157887 -0.01904857
v 0.01516972 0.01157887 -0.01904857
v 0.01516972 0.01157887 -0.01904857
v -0.01516851 0.01157886 -0.01904857
v 0.01516972 -0.01157886 0.0190493
v 0.01516972 -0.01157887 -0.01904857
v -0.01516851 -0.01157887 -0.01904857
v -0.01516851 -0.01157886 0.0190493
v -0.01516851 0.01157886 0.0190493
v -0.01516851 0.01157886 -0.01904857
v 0.01516972 0.01157887 -0.01904857
v 0.01516972 0.01157886 0.0190493
v -0.01516851 -0.01157887 -0.01904857
v -0.01639394 -0.01095145 0.0192336
v -0.01516851 -0.01157886 0.0190493
v -0.01516851 0.01157886 0.0190493
v -0.01639394 0.0109524 0.0192336
v -0.01516851 0.01157886 -0.01904857
vt 0.6956305 0.07980973
vt 0.8378658 0.07980973
vt 0.8378658 0.01099355
vt 0.6956305 0.01099343
vt 0.8417314 0.01066059
vt 0.8417314 0.08014268
vt 0.8394759 0.08270318
vt 0.8434021 0.08270318
vt 0.6940203 0.08270318
vt 0.6917649 0.08014268
vt 0.6900941 0.08270318
vt 0.6917649 0.01066059
vt 0.6940203 0.008099979
vt 0.6900941 0.008099979
vt 0.8394759 0.008099979
vt 0.8434021 0.008099979
vt 0.8455554 0.01099355
vt 0.8411452 0.00592131
vt 0.6923509 0.00592131
vt 0.6879408 0.01099343
vt 0.8411452 0.08488185
vt 0.8455554 0.07980973
vt 0.9900374 0.01099343
vt 0.9900374 0.07980973
vt 0.6879408 0.07980973
vt 0.5434587 0.07980973
vt 0.5434587 0.01099343
vt 0.6923509 0.00592131
vt 0.8411452 0.00592131
vt 0.5396346 0.08014262
vt 0.5413055 0.08270318
vt 0.5373792 0.08270318
vt 0.5357692 0.07980973
vt 0.5396346 0.01066059
vt 0.5357692 0.01099343
vt 0.3935339 0.01099343
vt 0.3935339 0.07980973
vt 0.3919237 0.008099979
vt 0.5373792 0.008099979
vt 0.5413055 0.008099979
vt 0.3919237 0.08270318
vt 0.3896684 0.08014262
vt 0.3879974 0.08270318
vt 0.3896684 0.01066059
vt 0.3879974 0.008099979
vt 0.3858443 0.01099343
vt 0.3902543 0.00592131
vt 0.5390487 0.00592131
vt 0.3902543 0.08488185
vt 0.3858443 0.07980973
vt 0.5390487 0.00592131
vt 0.5390487 0.08488185
vt 0.5390487 0.00592131
vt 0.6923509 0.00592131
vt 0.5390487 0.08488185
vt 0.5390487 0.08488185
vt 0.6923509 0.08488185
vt 0.6923509 0.08488185
vt 0.6923509 0.08488185
vt 0.8411452 0.08488185
vt 0.3790736 0.1540997
vt 0.3790736 0.005408913
vt 0.2734919 0.005408913
vt 0.2734919 0.1540997
vt 0.4218946 0.9740009
vt 0.4218946 0.851328
vt 0.3347656 0.851328
vt 0.3347656 0.9740009
vt 0.8411452 0.00592131
vt 0.9921905 0.008099979
vt 0.9944475 0.00592131
vt 0.9944475 0.08488185
vt 0.9921905 0.08270318
vt 0.8411452 0.08488185
vn 0.3675189 0.3725806 -0.852123
vn -0.367519 0.3725806 -0.852123
vn -0.3675191 -0.3725794 -0.8521234
vn 0.3675188 -0.3725797 -0.8521234
vn -0.8451343 -0.3718321 -0.3840428
vn -0.8451339 0.3718334 -0.3840425
vn -0.3717721 0.8507765 -0.3714362
vn -0.701086 0.7112061 -0.05161717
vn 0.3717724 0.8507763 -0.3714363
vn 0.8452613 0.3717018 -0.3838894
vn 0.7013025 0.7109958 -0.05157361
vn 0.8452615 -0.3717013 -0.3838896
vn 0.3718765 -0.8506703 -0.3715751
vn 0.7014706 -0.7108271 -0.05161414
vn -0.3718769 -0.85067 -0.3715753
vn -0.7012551 -0.7110364 -0.05165796
vn -0.9673508 -0.2435721 -0.07003578
vn -0.2339139 -0.9702969 -0.06171049
vn 0.2339138 -0.9702969 -0.06171048
vn 0.9674585 -0.2432019 -0.06983473
vn -0.2336182 0.9703796 -0.06153058
vn -0.9673508 0.2435723 -0.07003557
vn -0.9659828 -0.2398788 0.09661955
vn -0.9659828 0.2398791 0.09661952
vn 0.9674585 0.2432019 -0.06983461
vn 0.9660939 0.2395123 0.09641811
vn 0.966094 -0.2395119 0.09641793
vn 0.2339138 -0.9702969 -0.06171048
vn -0.2339139 -0.9702969 -0.06171049
vn 0.8302618 0.3670055 0.4194907
vn 0.6963704 0.708893 0.1119781
vn 0.3586622 0.8366982 0.4138811
vn 0.3697664 0.3888787 0.8438283
vn 0.8302619 -0.3670053 0.4194905
vn 0.3697663 -0.3888785 0.8438284
vn -0.3697669 -0.3888781 0.8438284
vn -0.3697658 0.3888797 0.8438281
vn -0.3587673 -0.8365945 0.4139995
vn 0.3587659 -0.8365951 0.4139995
vn 0.6965392 -0.7087224 0.112008
vn -0.3586605 0.8366989 0.413881
vn -0.8301307 0.3671335 0.4196381
vn -0.6961502 0.709102 0.1120237
vn -0.830132 -0.3671308 0.4196376
vn -0.696321 -0.7089296 0.1120531
vn -0.9659828 -0.2398788 0.09661955
vn -0.2296958 -0.9666079 0.1136174
vn 0.2296952 -0.966608 0.1136176
vn -0.2294 0.9666972 0.113456
vn -0.9659828 0.2398791 0.09661952
vn 0.2296952 -0.966608 0.1136176
vn 0.2294007 0.966697 0.1134559
vn 0.2296952 -0.966608 0.1136176
vn 0.2339138 -0.9702969 -0.06171048
vn 0.2294007 0.966697 0.1134559
vn 0.2294007 0.966697 0.1134559
vn 0.2336189 0.9703794 -0.06153073
vn 0.2336189 0.9703794 -0.06153073
vn 0.2336189 0.9703794 -0.06153073
vn -0.2336182 0.9703796 -0.06153058
vn 0.2296952 -0.966608 0.1136176
vn 0.2339138 -0.9702969 -0.06171048
vn -0.2339139 -0.9702969 -0.06171049
vn -0.2296958 -0.9666079 0.1136174
vn -0.2294 0.9666972 0.113456
vn -0.2336182 0.9703796 -0.06153058
vn 0.2336189 0.9703794 -0.06153073
vn 0.2294007 0.966697 0.1134559
vn -0.2339139 -0.9702969 -0.06171049
vn -0.696321 -0.7089296 0.1120531
vn -0.2296958 -0.9666079 0.1136174
vn -0.2294 0.9666972 0.113456
vn -0.6961502 0.709102 0.1120237
vn -0.2336182 0.9703796 -0.06153058
g mjpai04_0
f 3/3/3 2/2/2 1/1/1
f 4/4/4 3/3/3 1/1/1
f 3/3/3 5/5/5 2/2/2
f 5/5/5 6/6/6 2/2/2
f 2/2/2 7/7/7 1/1/1
f 2/2/2 6/6/6 7/7/7
f 7/7/7 6/6/6 8/8/8
f 7/7/7 9/9/9 1/1/1
f 1/1/1 10/10/10 4/4/4
f 1/1/1 9/9/9 10/10/10
f 11/11/11 10/10/10 9/9/9
f 10/10/10 12/12/12 4/4/4
f 4/4/4 13/13/13 3/3/3
f 4/4/4 12/12/12 13/13/13
f 14/14/14 13/13/13 12/12/12
f 13/13/13 15/15/15 3/3/3
f 3/3/3 15/15/15 5/5/5
f 5/5/5 15/15/15 16/16/16
f 17/17/17 5/5/5 16/16/16
f 5/5/5 17/17/17 6/6/6
f 18/18/18 16/16/16 15/15/15
f 19/19/19 13/13/13 14/14/14
f 20/20/20 14/14/14 12/12/12
f 21/21/21 7/7/7 8/8/8
f 22/22/22 8/8/8 6/6/6
f 22/22/22 17/17/17 23/23/23
f 23/23/23 17/17/17 16/16/16
f 24/24/24 22/22/22 23/23/23
f 25/25/25 10/10/10 11/11/11
f 25/25/25 20/20/20 12/12/12
f 10/10/10 25/25/25 12/12/12
f 20/20/20 25/25/25 26/26/26
f 25/25/25 11/11/11 26/26/26
f 27/27/27 20/20/20 26/26/26
f 17/17/17 22/22/22 6/6/6
f 13/13/13 28/28/28 15/15/15
f 28/28/28 29/29/29 15/15/15
f 27/27/27 26/26/26 30/30/30
f 26/26/26 31/31/31 30/30/30
f 30/30/30 31/31/31 32/32/32
f 11/11/11 31/31/31 26/26/26
f 33/33/33 30/30/30 32/32/32
f 34/34/34 30/30/30 33/33/33
f 34/34/34 27/27/27 30/30/30
f 35/35/35 34/34/34 33/33/33
f 36/36/36 35/35/35 33/33/33
f 37/37/37 36/36/36 33/33/33
f 33/33/33 32/32/32 37/37/37
f 36/36/36 38/38/38 35/35/35
f 38/38/38 39/39/39 35/35/35
f 35/35/35 39/39/39 34/34/34
f 39/39/39 40/40/40 34/34/34
f 32/32/32 41/41/41 37/37/37
f 37/37/37 42/42/42 36/36/36
f 37/37/37 41/41/41 42/42/42
f 41/41/41 43/43/43 42/42/42
f 42/42/42 44/44/44 36/36/36
f 36/36/36 44/44/44 38/38/38
f 44/44/44 45/45/45 38/38/38
f 46/46/46 45/45/45 44/44/44
f 47/47/47 38/38/38 45/45/45
f 38/38/38 47/47/47 39/39/39
f 48/48/48 40/40/40 39/39/39
f 27/27/27 34/34/34 40/40/40
f 49/49/49 43/43/43 41/41/41
f 50/50/50 42/42/42 43/43/43
f 50/50/50 46/46/46 44/44/44
f 42/42/42 50/50/50 44/44/44
f 47/47/47 51/51/51 39/39/39
f 52/52/52 49/49/49 41/41/41
f 32/32/32 52/52/52 41/41/41
f 20/20/20 27/27/27 40/40/40
f 14/14/14 20/20/20 40/40/40
f 14/14/14 40/40/40 53/53/53
f 54/54/54 14/14/14 53/53/53
f 55/55/55 32/32/32 31/31/31
f 57/57/57 56/56/56 31/31/31
f 11/11/11 57/57/57 31/31/31
f 58/58/58 11/11/11 9/9/9
f 60/60/60 59/59/59 9/9/9
f 7/7/7 60/60/60 9/9/9
f 63/63/63 62/62/62 61/61/61
f 64/64/64 63/63/63 61/61/61
f 67/67/67 66/66/66 65/65/65
f 68/68/68 67/67/67 65/65/65
f 70/70/70 16/16/16 69/69/69
f 71/71/71 70/70/70 69/69/69
f 70/70/70 23/23/23 16/16/16
f 8/8/8 73/73/73 72/72/72
f 74/74/74 8/8/8 72/72/72
f 8/8/8 22/22/22 73/73/73
f 22/22/22 24/24/24 73/73/73
